<?xml version="1.0" encoding="UTF-8" standalone="no"?><!DOCTYPE svg PUBLIC "-//W3C//DTD SVG 1.1//EN" "http://www.w3.org/Graphics/SVG/1.1/DTD/svg11.dtd"><svg width="100%" height="100%" viewBox="0 0 2776 2776" version="1.1" xmlns="http://www.w3.org/2000/svg" xmlns:xlink="http://www.w3.org/1999/xlink" xml:space="preserve" xmlns:serif="http://www.serif.com/" style="fill-rule:evenodd;clip-rule:evenodd;stroke-linecap:square;stroke-miterlimit:1.5;"><g><g id="Verticle"><path d="M328.028,239.095l0,2297.4" style="fill:none;stroke:#fff;stroke-width:12.5px;"/><path d="M453.266,239.095l0,2297.4" style="fill:none;stroke:#fff;stroke-width:12.5px;"/><path d="M577.93,239.095l-0,2297.4" style="fill:none;stroke:#fff;stroke-width:12.5px;"/><path d="M702.593,239.095l0,2297.4" style="fill:none;stroke:#fff;stroke-width:12.5px;"/><path d="M827.257,239.095l-0,2297.4" style="fill:none;stroke:#fff;stroke-width:12.5px;"/><path d="M951.92,239.095l0,2297.4" style="fill:none;stroke:#fff;stroke-width:12.5px;"/><path d="M1075.51,239.095l0,2297.4" style="fill:none;stroke:#fff;stroke-width:12.5px;"/><path d="M1200.75,239.095l0,2297.4" style="fill:none;stroke:#fff;stroke-width:12.5px;"/><path d="M1325.41,239.095l-0,2297.4" style="fill:none;stroke:#fff;stroke-width:12.5px;"/><path d="M1450.08,239.095l0,2297.4" style="fill:none;stroke:#fff;stroke-width:12.5px;"/><path d="M1574.74,239.095l-0,2297.4" style="fill:none;stroke:#fff;stroke-width:12.5px;"/><path d="M1699.4,239.095l0,2297.4" style="fill:none;stroke:#fff;stroke-width:12.5px;"/><path d="M1824.74,239.095l-0,2297.4" style="fill:none;stroke:#fff;stroke-width:12.5px;"/><path d="M1949.4,239.095l0,2297.4" style="fill:none;stroke:#fff;stroke-width:12.5px;"/><path d="M2073,239.095l0,2297.4" style="fill:none;stroke:#fff;stroke-width:12.5px;"/><path d="M2198.24,239.095l0,2297.4" style="fill:none;stroke:#fff;stroke-width:12.5px;"/><path d="M2322.9,239.095l-0,2297.4" style="fill:none;stroke:#fff;stroke-width:12.5px;"/><path d="M2447.56,239.095l0,2297.4" style="fill:none;stroke:#fff;stroke-width:12.5px;"/></g><g id="Horizontal"><path d="M2544.02,328.028l-2312.44,0" style="fill:none;stroke:#fff;stroke-width:12.5px;"/><path d="M2544.02,453.266l-2312.44,0" style="fill:none;stroke:#fff;stroke-width:12.5px;"/><path d="M2544.02,577.93l-2312.44,-0" style="fill:none;stroke:#fff;stroke-width:12.5px;"/><path d="M2544.02,702.593l-2312.44,0" style="fill:none;stroke:#fff;stroke-width:12.5px;"/><path d="M2544.02,827.257l-2312.44,-0" style="fill:none;stroke:#fff;stroke-width:12.5px;"/><path d="M2544.02,951.92l-2312.44,0" style="fill:none;stroke:#fff;stroke-width:12.5px;"/><path d="M2544.02,1075.51l-2312.44,0" style="fill:none;stroke:#fff;stroke-width:12.5px;"/><path d="M2544.02,1200.75l-2312.44,0" style="fill:none;stroke:#fff;stroke-width:12.5px;"/><path d="M2544.02,1325.41l-2312.44,-0" style="fill:none;stroke:#fff;stroke-width:12.5px;"/><path d="M2544.02,1450.08l-2312.44,0" style="fill:none;stroke:#fff;stroke-width:12.5px;"/><path d="M2544.02,1574.74l-2312.44,-0" style="fill:none;stroke:#fff;stroke-width:12.5px;"/><path d="M2544.02,1699.4l-2312.44,0" style="fill:none;stroke:#fff;stroke-width:12.5px;"/><path d="M2544.02,1824.74l-2312.44,-0" style="fill:none;stroke:#fff;stroke-width:12.5px;"/><path d="M2544.02,1949.4l-2312.44,0" style="fill:none;stroke:#fff;stroke-width:12.5px;"/><path d="M2544.02,2073l-2312.44,0" style="fill:none;stroke:#fff;stroke-width:12.5px;"/><path d="M2544.02,2198.24l-2312.44,0" style="fill:none;stroke:#fff;stroke-width:12.5px;"/><path d="M2544.02,2322.9l-2312.44,-0" style="fill:none;stroke:#fff;stroke-width:12.5px;"/><path d="M2544.02,2447.56l-2312.44,0" style="fill:none;stroke:#fff;stroke-width:12.5px;"/></g></g><g><path d="M169.17,322.321l-8.3,-0l-0,-31.281c-3.033,2.835 -6.607,4.933 -10.723,6.291l0,-7.532c2.166,-0.709 4.519,-2.053 7.06,-4.032c2.54,-1.979 4.283,-4.288 5.228,-6.927l6.735,0l-0,43.481Z" style="fill:#fff;fill-rule:nonzero;"/><path d="M188.695,298.956c-2.147,-0.906 -3.707,-2.151 -4.682,-3.737c-0.975,-1.585 -1.462,-3.323 -1.462,-5.213c-0,-3.23 1.127,-5.898 3.382,-8.005c2.255,-2.107 5.46,-3.161 9.615,-3.161c4.116,0 7.311,1.054 9.585,3.161c2.275,2.107 3.412,4.775 3.412,8.005c-0,2.008 -0.522,3.795 -1.566,5.361c-1.043,1.566 -2.511,2.762 -4.401,3.589c2.402,0.965 4.229,2.373 5.479,4.224c1.251,1.851 1.876,3.988 1.876,6.41c0,3.997 -1.275,7.247 -3.825,9.748c-2.55,2.5 -5.942,3.751 -10.176,3.751c-3.939,-0 -7.217,-1.034 -9.837,-3.102c-3.091,-2.441 -4.637,-5.789 -4.637,-10.043c-0,-2.343 0.581,-4.494 1.743,-6.454c1.162,-1.959 2.993,-3.471 5.494,-4.534Zm1.713,-8.359c0,1.654 0.468,2.944 1.403,3.869c0.936,0.926 2.181,1.388 3.737,1.388c1.575,0 2.835,-0.467 3.781,-1.403c0.945,-0.935 1.418,-2.23 1.418,-3.884c-0,-1.556 -0.468,-2.801 -1.404,-3.737c-0.935,-0.935 -2.171,-1.403 -3.707,-1.403c-1.595,0 -2.865,0.473 -3.81,1.418c-0.945,0.945 -1.418,2.196 -1.418,3.752Zm-0.768,18.55c0,2.284 0.586,4.066 1.758,5.346c1.171,1.28 2.633,1.92 4.386,1.92c1.713,0 3.131,-0.615 4.254,-1.846c1.122,-1.231 1.683,-3.008 1.683,-5.332c0,-2.028 -0.571,-3.657 -1.713,-4.888c-1.142,-1.231 -2.589,-1.846 -4.342,-1.846c-2.028,-0 -3.54,0.699 -4.534,2.097c-0.995,1.398 -1.492,2.914 -1.492,4.549Z" style="fill:#fff;fill-rule:nonzero;"/><path d="M169.17,447.269l-8.3,-0l-0,-31.281c-3.033,2.835 -6.607,4.933 -10.723,6.291l0,-7.532c2.166,-0.709 4.519,-2.053 7.06,-4.032c2.54,-1.979 4.283,-4.288 5.228,-6.927l6.735,0l-0,43.481Z" style="fill:#fff;fill-rule:nonzero;"/><path d="M181.576,412.266l0,-7.71l28.387,0l-0,6.026c-2.344,2.304 -4.727,5.612 -7.149,9.925c-2.422,4.313 -4.268,8.896 -5.538,13.75c-1.27,4.854 -1.896,9.192 -1.876,13.012l-8.005,-0c0.138,-5.987 1.374,-12.091 3.707,-18.314c2.334,-6.223 5.45,-11.786 9.349,-16.689l-18.875,-0Z" style="fill:#fff;fill-rule:nonzero;"/><path d="M169.17,572.217l-8.3,-0l-0,-31.281c-3.033,2.835 -6.607,4.932 -10.723,6.291l0,-7.532c2.166,-0.709 4.519,-2.053 7.06,-4.032c2.54,-1.979 4.283,-4.288 5.228,-6.927l6.735,0l-0,43.481Z" style="fill:#fff;fill-rule:nonzero;"/><path d="M209.697,539.518l-8.035,0.886c-0.197,-1.654 -0.709,-2.875 -1.536,-3.663c-0.827,-0.788 -1.9,-1.181 -3.219,-1.181c-1.753,-0 -3.235,0.787 -4.446,2.363c-1.211,1.575 -1.974,4.854 -2.289,9.836c2.067,-2.442 4.637,-3.663 7.709,-3.663c3.466,0 6.435,1.32 8.906,3.958c2.472,2.639 3.707,6.046 3.707,10.221c0,4.43 -1.299,7.985 -3.899,10.663c-2.599,2.678 -5.937,4.017 -10.013,4.017c-4.372,0 -7.966,-1.698 -10.782,-5.095c-2.816,-3.397 -4.224,-8.965 -4.224,-16.704c0,-7.936 1.467,-13.657 4.401,-17.162c2.934,-3.505 6.745,-5.258 11.432,-5.258c3.288,0 6.011,0.921 8.167,2.762c2.156,1.841 3.53,4.514 4.121,8.02Zm-18.816,18.107c-0,2.698 0.62,4.78 1.861,6.247c1.24,1.467 2.658,2.201 4.253,2.201c1.536,-0 2.816,-0.601 3.84,-1.802c1.024,-1.201 1.536,-3.17 1.536,-5.908c0,-2.816 -0.551,-4.879 -1.654,-6.188c-1.103,-1.31 -2.481,-1.964 -4.135,-1.964c-1.595,-0 -2.944,0.625 -4.047,1.875c-1.103,1.251 -1.654,3.097 -1.654,5.539Z" style="fill:#fff;fill-rule:nonzero;"/><path d="M169.17,697.165l-8.3,-0l-0,-31.282c-3.033,2.836 -6.607,4.933 -10.723,6.292l0,-7.532c2.166,-0.709 4.519,-2.053 7.06,-4.032c2.54,-1.979 4.283,-4.288 5.228,-6.927l6.735,0l-0,43.481Z" style="fill:#fff;fill-rule:nonzero;"/><path d="M181.694,686.029l8.271,-0.857c0.236,1.871 0.935,3.353 2.097,4.446c1.162,1.093 2.501,1.639 4.017,1.639c1.733,0 3.201,-0.704 4.402,-2.112c1.201,-1.408 1.802,-3.53 1.802,-6.365c-0,-2.659 -0.596,-4.653 -1.787,-5.982c-1.192,-1.329 -2.743,-1.994 -4.653,-1.994c-2.383,0 -4.519,1.054 -6.41,3.161l-6.734,-0.975l4.253,-22.538l21.947,0l0,7.769l-15.655,-0l-1.3,7.355c1.851,-0.926 3.742,-1.388 5.671,-1.388c3.683,-0 6.804,1.339 9.364,4.017c2.56,2.678 3.84,6.154 3.84,10.427c0,3.564 -1.034,6.744 -3.101,9.541c-2.816,3.82 -6.725,5.73 -11.727,5.73c-3.998,0 -7.257,-1.073 -9.777,-3.219c-2.521,-2.147 -4.027,-5.032 -4.52,-8.655Z" style="fill:#fff;fill-rule:nonzero;"/><path d="M169.17,822.113l-8.3,-0l-0,-31.282c-3.033,2.836 -6.607,4.933 -10.723,6.292l0,-7.532c2.166,-0.709 4.519,-2.053 7.06,-4.032c2.54,-1.979 4.283,-4.288 5.228,-6.927l6.735,0l-0,43.481Z" style="fill:#fff;fill-rule:nonzero;"/><path d="M197.852,822.113l-0,-8.714l-17.723,-0l-0,-7.267l18.786,-27.5l6.971,0l0,27.471l5.376,-0l0,7.296l-5.376,-0l0,8.714l-8.034,-0Zm-0,-16.01l-0,-14.799l-9.955,14.799l9.955,-0Z" style="fill:#fff;fill-rule:nonzero;"/><path d="M169.17,947.061l-8.3,-0l-0,-31.282c-3.033,2.836 -6.607,4.933 -10.723,6.292l0,-7.532c2.166,-0.709 4.519,-2.053 7.06,-4.032c2.54,-1.979 4.283,-4.288 5.228,-6.927l6.735,-0l-0,43.481Z" style="fill:#fff;fill-rule:nonzero;"/><path d="M181.281,935.57l8.034,-0.975c0.256,2.048 0.945,3.614 2.068,4.697c1.122,1.083 2.481,1.625 4.076,1.625c1.713,-0 3.156,-0.65 4.328,-1.95c1.171,-1.3 1.757,-3.052 1.757,-5.258c0,-2.087 -0.561,-3.741 -1.684,-4.962c-1.122,-1.221 -2.491,-1.832 -4.105,-1.832c-1.064,0 -2.334,0.207 -3.811,0.621l0.916,-6.765c2.245,0.059 3.958,-0.428 5.139,-1.462c1.182,-1.034 1.773,-2.407 1.773,-4.12c-0,-1.458 -0.433,-2.619 -1.3,-3.486c-0.866,-0.866 -2.018,-1.3 -3.456,-1.3c-1.418,0 -2.629,0.493 -3.633,1.477c-1.004,0.985 -1.615,2.422 -1.832,4.313l-7.65,-1.3c0.532,-2.619 1.334,-4.711 2.407,-6.277c1.074,-1.565 2.57,-2.796 4.49,-3.692c1.92,-0.896 4.072,-1.344 6.454,-1.344c4.077,-0 7.346,1.3 9.807,3.899c2.029,2.127 3.043,4.529 3.043,7.207c-0,3.801 -2.078,6.834 -6.233,9.098c2.481,0.532 4.465,1.723 5.952,3.575c1.487,1.851 2.23,4.086 2.23,6.705c0,3.8 -1.388,7.04 -4.165,9.718c-2.776,2.678 -6.232,4.017 -10.368,4.017c-3.919,0 -7.168,-1.127 -9.747,-3.382c-2.58,-2.255 -4.077,-5.204 -4.49,-8.847Z" style="fill:#fff;fill-rule:nonzero;"/><path d="M169.17,1072.01l-8.3,-0l-0,-31.282c-3.033,2.836 -6.607,4.933 -10.723,6.292l0,-7.532c2.166,-0.709 4.519,-2.053 7.06,-4.032c2.54,-1.979 4.283,-4.288 5.228,-6.927l6.735,-0l-0,43.481Z" style="fill:#fff;fill-rule:nonzero;"/><path d="M209.608,1064.3l0,7.71l-29.095,-0c0.315,-2.915 1.26,-5.677 2.835,-8.286c1.576,-2.609 4.687,-6.07 9.335,-10.383c3.741,-3.485 6.035,-5.848 6.882,-7.089c1.142,-1.713 1.713,-3.407 1.713,-5.081c0,-1.851 -0.497,-3.273 -1.491,-4.268c-0.995,-0.994 -2.368,-1.492 -4.121,-1.492c-1.733,0 -3.111,0.522 -4.135,1.566c-1.024,1.044 -1.615,2.777 -1.773,5.199l-8.271,-0.827c0.493,-4.569 2.039,-7.848 4.638,-9.837c2.599,-1.989 5.849,-2.983 9.748,-2.983c4.273,-0 7.631,1.152 10.072,3.456c2.442,2.304 3.663,5.169 3.663,8.596c0,1.949 -0.349,3.805 -1.048,5.568c-0.7,1.762 -1.807,3.608 -3.324,5.538c-1.004,1.28 -2.816,3.121 -5.435,5.524c-2.619,2.402 -4.278,3.997 -4.977,4.785c-0.699,0.788 -1.265,1.556 -1.698,2.304l16.482,0Z" style="fill:#fff;fill-rule:nonzero;"/><path d="M169.17,1196.96l-8.3,-0l-0,-31.282c-3.033,2.836 -6.607,4.933 -10.723,6.292l0,-7.532c2.166,-0.709 4.519,-2.053 7.06,-4.032c2.54,-1.979 4.283,-4.288 5.228,-6.927l6.735,-0l-0,43.481Z" style="fill:#fff;fill-rule:nonzero;"/><path d="M199.476,1196.96l-8.3,-0l0,-31.282c-3.033,2.836 -6.607,4.933 -10.722,6.292l-0,-7.532c2.166,-0.709 4.519,-2.053 7.059,-4.032c2.541,-1.979 4.283,-4.288 5.229,-6.927l6.734,-0l0,43.481Z" style="fill:#fff;fill-rule:nonzero;"/><path d="M169.17,1321.9l-8.3,-0l-0,-31.282c-3.033,2.836 -6.607,4.933 -10.723,6.292l0,-7.532c2.166,-0.709 4.519,-2.053 7.06,-4.032c2.54,-1.979 4.283,-4.288 5.228,-6.927l6.735,-0l-0,43.481Z" style="fill:#fff;fill-rule:nonzero;"/><path d="M195.607,1278.42c4.194,-0 7.473,1.496 9.836,4.49c2.816,3.544 4.224,9.422 4.224,17.634c0,8.192 -1.418,14.08 -4.253,17.664c-2.344,2.954 -5.613,4.431 -9.807,4.431c-4.214,0 -7.611,-1.62 -10.191,-4.859c-2.58,-3.239 -3.869,-9.014 -3.869,-17.324c-0,-8.153 1.417,-14.021 4.253,-17.605c2.343,-2.954 5.612,-4.431 9.807,-4.431Zm-0,6.882c-1.004,0 -1.9,0.32 -2.688,0.96c-0.788,0.64 -1.398,1.787 -1.832,3.442c-0.571,2.146 -0.856,5.76 -0.856,10.84c-0,5.081 0.256,8.571 0.768,10.472c0.512,1.9 1.157,3.165 1.935,3.795c0.777,0.63 1.669,0.946 2.673,0.946c1.004,-0 1.9,-0.32 2.688,-0.96c0.788,-0.64 1.398,-1.788 1.831,-3.442c0.571,-2.126 0.857,-5.73 0.857,-10.811c-0,-5.08 -0.256,-8.571 -0.768,-10.471c-0.512,-1.901 -1.157,-3.171 -1.935,-3.811c-0.778,-0.64 -1.669,-0.96 -2.673,-0.96Z" style="fill:#fff;fill-rule:nonzero;"/><path d="M148.109,1436.84l8.034,-0.886c0.197,1.634 0.709,2.845 1.536,3.633c0.827,0.788 1.92,1.182 3.279,1.182c1.713,-0 3.171,-0.788 4.372,-2.364c1.201,-1.575 1.969,-4.844 2.304,-9.806c-2.087,2.422 -4.697,3.633 -7.828,3.633c-3.407,-0 -6.346,-1.315 -8.817,-3.943c-2.471,-2.629 -3.707,-6.051 -3.707,-10.265c-0,-4.391 1.304,-7.931 3.914,-10.619c2.609,-2.688 5.932,-4.032 9.969,-4.032c4.391,-0 7.995,1.698 10.811,5.095c2.816,3.397 4.224,8.985 4.224,16.763c0,7.917 -1.467,13.627 -4.401,17.133c-2.934,3.505 -6.755,5.258 -11.461,5.258c-3.387,-0 -6.124,-0.901 -8.212,-2.703c-2.087,-1.802 -3.426,-4.495 -4.017,-8.079Zm18.786,-18.137c0,-2.678 -0.615,-4.755 -1.846,-6.232c-1.23,-1.477 -2.653,-2.216 -4.268,-2.216c-1.536,0 -2.811,0.606 -3.825,1.817c-1.014,1.211 -1.522,3.195 -1.522,5.952c0,2.796 0.552,4.849 1.655,6.159c1.102,1.309 2.481,1.964 4.135,1.964c1.595,0 2.939,-0.63 4.032,-1.89c1.093,-1.261 1.639,-3.112 1.639,-5.554Z" style="fill:#fff;fill-rule:nonzero;"/><path d="M155.05,1548.43c-2.146,-0.905 -3.707,-2.151 -4.681,-3.736c-0.975,-1.585 -1.463,-3.323 -1.463,-5.214c0,-3.229 1.128,-5.898 3.383,-8.005c2.254,-2.107 5.459,-3.16 9.614,-3.16c4.116,-0 7.311,1.053 9.586,3.16c2.274,2.107 3.411,4.776 3.411,8.005c0,2.009 -0.521,3.796 -1.565,5.362c-1.044,1.565 -2.511,2.761 -4.401,3.588c2.402,0.965 4.229,2.373 5.479,4.224c1.25,1.852 1.876,3.988 1.876,6.41c-0,3.998 -1.275,7.247 -3.826,9.748c-2.55,2.501 -5.942,3.751 -10.176,3.751c-3.938,0 -7.217,-1.033 -9.836,-3.101c-3.092,-2.442 -4.637,-5.79 -4.637,-10.043c-0,-2.344 0.58,-4.495 1.742,-6.454c1.162,-1.96 2.994,-3.471 5.494,-4.535Zm1.714,-8.359c-0,1.654 0.467,2.944 1.403,3.87c0.935,0.925 2.181,1.388 3.736,1.388c1.576,-0 2.836,-0.468 3.781,-1.403c0.946,-0.936 1.418,-2.23 1.418,-3.884c0,-1.556 -0.467,-2.802 -1.403,-3.737c-0.935,-0.935 -2.171,-1.403 -3.707,-1.403c-1.595,-0 -2.865,0.472 -3.81,1.418c-0.946,0.945 -1.418,2.195 -1.418,3.751Zm-0.768,18.55c-0,2.285 0.586,4.067 1.757,5.347c1.172,1.28 2.634,1.92 4.387,1.92c1.713,-0 3.131,-0.616 4.253,-1.846c1.123,-1.231 1.684,-3.008 1.684,-5.332c-0,-2.028 -0.571,-3.658 -1.713,-4.889c-1.142,-1.231 -2.59,-1.846 -4.342,-1.846c-2.029,0 -3.54,0.699 -4.535,2.097c-0.994,1.398 -1.491,2.915 -1.491,4.549Z" style="fill:#fff;fill-rule:nonzero;"/><path d="M147.932,1661.75l-0,-7.709l28.386,-0l0,6.026c-2.343,2.304 -4.726,5.612 -7.148,9.925c-2.422,4.312 -4.268,8.896 -5.539,13.75c-1.27,4.854 -1.895,9.191 -1.875,13.011l-8.005,0c0.138,-5.986 1.373,-12.091 3.707,-18.313c2.333,-6.223 5.45,-11.786 9.349,-16.69l-18.875,0Z" style="fill:#fff;fill-rule:nonzero;"/><path d="M176.052,1789l-8.034,0.886c-0.197,-1.654 -0.709,-2.875 -1.536,-3.662c-0.827,-0.788 -1.9,-1.182 -3.22,-1.182c-1.752,0 -3.234,0.788 -4.445,2.363c-1.211,1.576 -1.975,4.854 -2.29,9.836c2.068,-2.441 4.638,-3.662 7.71,-3.662c3.466,-0 6.434,1.319 8.906,3.958c2.471,2.639 3.707,6.045 3.707,10.22c-0,4.431 -1.3,7.985 -3.899,10.664c-2.6,2.678 -5.937,4.017 -10.014,4.017c-4.371,-0 -7.965,-1.699 -10.781,-5.096c-2.816,-3.397 -4.224,-8.965 -4.224,-16.704c-0,-7.936 1.467,-13.656 4.401,-17.161c2.934,-3.506 6.745,-5.258 11.431,-5.258c3.289,-0 6.011,0.92 8.168,2.762c2.156,1.841 3.53,4.514 4.12,8.019Zm-18.816,18.107c0,2.698 0.621,4.781 1.861,6.248c1.241,1.467 2.659,2.2 4.254,2.2c1.536,0 2.816,-0.6 3.84,-1.802c1.024,-1.201 1.536,-3.17 1.536,-5.907c-0,-2.816 -0.552,-4.879 -1.654,-6.189c-1.103,-1.309 -2.482,-1.964 -4.136,-1.964c-1.595,0 -2.944,0.625 -4.047,1.876c-1.102,1.25 -1.654,3.096 -1.654,5.538Z" style="fill:#fff;fill-rule:nonzero;"/><path d="M148.05,1935.51l8.271,-0.856c0.236,1.87 0.935,3.352 2.097,4.445c1.162,1.093 2.501,1.64 4.017,1.64c1.733,-0 3.2,-0.704 4.401,-2.112c1.202,-1.408 1.802,-3.53 1.802,-6.366c0,-2.658 -0.595,-4.652 -1.787,-5.982c-1.191,-1.329 -2.742,-1.993 -4.652,-1.993c-2.383,-0 -4.52,1.053 -6.41,3.16l-6.735,-0.975l4.254,-22.537l21.947,-0l-0,7.768l-15.656,0l-1.299,7.355c1.851,-0.925 3.741,-1.388 5.671,-1.388c3.683,0 6.804,1.339 9.364,4.017c2.56,2.678 3.84,6.154 3.84,10.427c-0,3.565 -1.034,6.745 -3.102,9.541c-2.816,3.821 -6.725,5.731 -11.726,5.731c-3.998,-0 -7.257,-1.073 -9.778,-3.22c-2.52,-2.146 -4.027,-5.031 -4.519,-8.655Z" style="fill:#fff;fill-rule:nonzero;"/><path d="M164.207,2071.59l0,-8.714l-17.723,0l0,-7.266l18.787,-27.5l6.971,-0l-0,27.47l5.376,0l-0,7.296l-5.376,0l-0,8.714l-8.035,0Zm0,-16.01l0,-14.798l-9.954,14.798l9.954,0Z" style="fill:#fff;fill-rule:nonzero;"/><path d="M147.636,2185.05l8.035,-0.975c0.256,2.048 0.945,3.614 2.067,4.697c1.123,1.083 2.482,1.624 4.077,1.624c1.713,0 3.156,-0.65 4.327,-1.949c1.172,-1.3 1.758,-3.053 1.758,-5.258c-0,-2.088 -0.561,-3.742 -1.684,-4.963c-1.122,-1.221 -2.491,-1.831 -4.106,-1.831c-1.063,-0 -2.333,0.207 -3.81,0.62l0.915,-6.764c2.245,0.059 3.959,-0.428 5.14,-1.462c1.182,-1.034 1.772,-2.408 1.772,-4.121c0,-1.457 -0.433,-2.619 -1.299,-3.485c-0.867,-0.867 -2.019,-1.3 -3.456,-1.3c-1.418,-0 -2.629,0.492 -3.634,1.477c-1.004,0.984 -1.614,2.422 -1.831,4.312l-7.65,-1.299c0.531,-2.619 1.334,-4.712 2.407,-6.277c1.073,-1.566 2.57,-2.796 4.49,-3.692c1.92,-0.896 4.071,-1.344 6.454,-1.344c4.076,-0 7.345,1.299 9.807,3.899c2.028,2.126 3.042,4.529 3.042,7.207c0,3.801 -2.077,6.833 -6.232,9.098c2.481,0.532 4.465,1.723 5.952,3.574c1.486,1.851 2.23,4.086 2.23,6.705c-0,3.801 -1.388,7.04 -4.165,9.718c-2.777,2.679 -6.233,4.018 -10.368,4.018c-3.919,-0 -7.168,-1.128 -9.748,-3.382c-2.58,-2.255 -4.076,-5.204 -4.49,-8.847Z" style="fill:#fff;fill-rule:nonzero;"/><path d="M175.964,2313.78l-0,7.709l-29.096,0c0.315,-2.914 1.261,-5.676 2.836,-8.285c1.575,-2.61 4.687,-6.071 9.334,-10.383c3.742,-3.486 6.036,-5.849 6.883,-7.089c1.142,-1.714 1.713,-3.407 1.713,-5.081c-0,-1.851 -0.497,-3.274 -1.492,-4.268c-0.994,-0.995 -2.368,-1.492 -4.12,-1.492c-1.733,-0 -3.112,0.522 -4.136,1.565c-1.024,1.044 -1.615,2.777 -1.772,5.199l-8.271,-0.827c0.492,-4.568 2.038,-7.847 4.638,-9.836c2.599,-1.989 5.848,-2.984 9.747,-2.984c4.274,0 7.631,1.152 10.073,3.456c2.442,2.304 3.663,5.17 3.663,8.596c-0,1.95 -0.35,3.806 -1.049,5.568c-0.699,1.763 -1.807,3.609 -3.323,5.539c-1.004,1.28 -2.816,3.121 -5.435,5.523c-2.619,2.403 -4.278,3.998 -4.977,4.786c-0.699,0.787 -1.266,1.555 -1.699,2.304l16.483,-0Z" style="fill:#fff;fill-rule:nonzero;"/><path d="M169.17,2446.44l-8.3,0l-0,-31.281c-3.033,2.836 -6.607,4.933 -10.723,6.292l0,-7.533c2.166,-0.709 4.519,-2.053 7.06,-4.032c2.54,-1.979 4.283,-4.288 5.228,-6.927l6.735,0l-0,43.481Z" style="fill:#fff;fill-rule:nonzero;"/></g><g><path d="M339.994,218.155l-8.3,0l-0,-31.281c-3.033,2.835 -6.607,4.933 -10.723,6.291l0,-7.532c2.167,-0.709 4.52,-2.053 7.06,-4.032c2.54,-1.979 4.283,-4.288 5.228,-6.927l6.735,0l0,43.481Z" style="fill:#fff;fill-rule:nonzero;"/><path d="M481.277,210.445l-0,7.71l-29.095,0c0.315,-2.914 1.26,-5.676 2.835,-8.286c1.576,-2.609 4.687,-6.07 9.334,-10.382c3.742,-3.486 6.036,-5.849 6.883,-7.09c1.142,-1.713 1.713,-3.406 1.713,-5.08c0,-1.851 -0.497,-3.274 -1.492,-4.268c-0.994,-0.995 -2.368,-1.492 -4.12,-1.492c-1.733,-0 -3.112,0.522 -4.136,1.565c-1.024,1.044 -1.614,2.777 -1.772,5.199l-8.271,-0.827c0.493,-4.569 2.038,-7.847 4.638,-9.836c2.599,-1.989 5.848,-2.984 9.748,-2.984c4.273,0 7.63,1.152 10.072,3.456c2.442,2.304 3.663,5.17 3.663,8.596c-0,1.95 -0.35,3.806 -1.049,5.568c-0.699,1.763 -1.806,3.609 -3.323,5.539c-1.004,1.28 -2.816,3.121 -5.435,5.523c-2.619,2.403 -4.278,3.998 -4.977,4.785c-0.699,0.788 -1.265,1.556 -1.699,2.304l16.483,0Z" style="fill:#fff;fill-rule:nonzero;"/><path d="M570.631,206.665l8.034,-0.975c0.256,2.048 0.946,3.613 2.068,4.696c1.123,1.083 2.481,1.625 4.076,1.625c1.714,0 3.156,-0.65 4.328,-1.95c1.172,-1.299 1.757,-3.052 1.757,-5.257c0,-2.088 -0.561,-3.742 -1.683,-4.963c-1.123,-1.221 -2.491,-1.831 -4.106,-1.831c-1.064,-0 -2.334,0.207 -3.811,0.62l0.916,-6.764c2.245,0.059 3.958,-0.429 5.14,-1.462c1.181,-1.034 1.772,-2.408 1.772,-4.121c0,-1.457 -0.433,-2.619 -1.3,-3.486c-0.866,-0.866 -2.018,-1.299 -3.456,-1.299c-1.417,-0 -2.629,0.492 -3.633,1.477c-1.004,0.984 -1.615,2.422 -1.831,4.312l-7.651,-1.299c0.532,-2.619 1.334,-4.712 2.408,-6.277c1.073,-1.566 2.57,-2.797 4.49,-3.693c1.92,-0.896 4.071,-1.344 6.454,-1.344c4.076,0 7.345,1.3 9.807,3.899c2.028,2.127 3.042,4.53 3.042,7.208c-0,3.8 -2.078,6.833 -6.233,9.098c2.482,0.531 4.466,1.723 5.952,3.574c1.487,1.851 2.231,4.086 2.231,6.705c-0,3.801 -1.389,7.04 -4.165,9.718c-2.777,2.678 -6.233,4.018 -10.368,4.018c-3.919,-0 -7.168,-1.128 -9.748,-3.383c-2.58,-2.254 -4.076,-5.203 -4.49,-8.846Z" style="fill:#fff;fill-rule:nonzero;"/><path d="M721.691,218.155l0,-8.714l-17.723,0l-0,-7.266l18.786,-27.501l6.971,0l0,27.471l5.376,0l0,7.296l-5.376,0l0,8.714l-8.034,0Zm0,-16.01l0,-14.799l-9.954,14.799l9.954,0Z" style="fill:#fff;fill-rule:nonzero;"/><path d="M823.215,207.019l8.271,-0.857c0.236,1.871 0.935,3.353 2.097,4.446c1.162,1.093 2.501,1.639 4.017,1.639c1.733,0 3.2,-0.704 4.401,-2.112c1.202,-1.408 1.802,-3.53 1.802,-6.365c0,-2.659 -0.595,-4.653 -1.787,-5.982c-1.191,-1.329 -2.742,-1.994 -4.652,-1.994c-2.383,0 -4.52,1.054 -6.41,3.161l-6.735,-0.975l4.254,-22.538l21.947,0l-0,7.769l-15.656,-0l-1.299,7.355c1.851,-0.925 3.741,-1.388 5.671,-1.388c3.683,-0 6.804,1.339 9.364,4.017c2.56,2.678 3.84,6.154 3.84,10.427c-0,3.564 -1.034,6.745 -3.102,9.541c-2.816,3.82 -6.725,5.731 -11.726,5.731c-3.998,-0 -7.257,-1.074 -9.778,-3.22c-2.52,-2.147 -4.027,-5.032 -4.519,-8.655Z" style="fill:#fff;fill-rule:nonzero;"/><path d="M968.899,185.456l-8.035,0.886c-0.197,-1.654 -0.709,-2.875 -1.536,-3.663c-0.827,-0.787 -1.9,-1.181 -3.219,-1.181c-1.753,-0 -3.235,0.787 -4.446,2.363c-1.211,1.575 -1.974,4.854 -2.289,9.836c2.068,-2.442 4.637,-3.663 7.709,-3.663c3.466,0 6.435,1.32 8.906,3.959c2.472,2.638 3.707,6.045 3.707,10.22c0,4.431 -1.299,7.985 -3.899,10.663c-2.599,2.678 -5.937,4.018 -10.013,4.018c-4.372,-0 -7.966,-1.699 -10.782,-5.096c-2.816,-3.397 -4.224,-8.965 -4.224,-16.704c0,-7.936 1.467,-13.657 4.401,-17.162c2.935,-3.505 6.745,-5.258 11.432,-5.258c3.288,0 6.011,0.921 8.167,2.762c2.157,1.841 3.53,4.515 4.121,8.02Zm-18.816,18.107c-0,2.698 0.62,4.78 1.861,6.247c1.24,1.467 2.658,2.201 4.253,2.201c1.536,0 2.816,-0.601 3.84,-1.802c1.024,-1.201 1.536,-3.17 1.536,-5.908c0,-2.816 -0.551,-4.878 -1.654,-6.188c-1.103,-1.309 -2.481,-1.964 -4.135,-1.964c-1.595,-0 -2.944,0.625 -4.047,1.876c-1.103,1.25 -1.654,3.096 -1.654,5.538Z" style="fill:#fff;fill-rule:nonzero;"/><path d="M1075.27,183.152l0,-7.71l28.387,0l-0,6.026c-2.344,2.304 -4.727,5.613 -7.149,9.925c-2.422,4.313 -4.268,8.896 -5.538,13.75c-1.27,4.854 -1.896,9.192 -1.876,13.012l-8.005,0c0.138,-5.986 1.374,-12.091 3.707,-18.314c2.334,-6.223 5.45,-11.786 9.349,-16.689l-18.875,-0Z" style="fill:#fff;fill-rule:nonzero;"/><path d="M1216.88,194.79c-2.147,-0.906 -3.707,-2.151 -4.682,-3.737c-0.975,-1.585 -1.462,-3.323 -1.462,-5.213c-0,-3.23 1.127,-5.898 3.382,-8.005c2.255,-2.107 5.46,-3.161 9.615,-3.161c4.115,0 7.311,1.054 9.585,3.161c2.274,2.107 3.412,4.775 3.412,8.005c-0,2.009 -0.522,3.796 -1.566,5.361c-1.044,1.566 -2.511,2.762 -4.401,3.589c2.402,0.965 4.229,2.373 5.479,4.224c1.251,1.851 1.876,3.988 1.876,6.41c-0,3.997 -1.275,7.247 -3.825,9.748c-2.55,2.501 -5.942,3.751 -10.176,3.751c-3.939,0 -7.218,-1.034 -9.837,-3.101c-3.091,-2.442 -4.637,-5.79 -4.637,-10.044c-0,-2.343 0.581,-4.494 1.743,-6.454c1.161,-1.959 2.993,-3.471 5.494,-4.534Zm1.713,-8.359c0,1.654 0.468,2.944 1.403,3.869c0.936,0.926 2.181,1.389 3.737,1.389c1.575,-0 2.835,-0.468 3.781,-1.404c0.945,-0.935 1.418,-2.23 1.418,-3.884c-0,-1.556 -0.468,-2.801 -1.404,-3.736c-0.935,-0.936 -2.171,-1.404 -3.707,-1.404c-1.595,0 -2.865,0.473 -3.81,1.418c-0.945,0.946 -1.418,2.196 -1.418,3.752Zm-0.768,18.55c0,2.284 0.586,4.066 1.758,5.346c1.171,1.28 2.633,1.92 4.386,1.92c1.713,0 3.131,-0.615 4.254,-1.846c1.122,-1.231 1.683,-3.008 1.683,-5.332c0,-2.028 -0.571,-3.657 -1.713,-4.888c-1.142,-1.231 -2.589,-1.846 -4.342,-1.846c-2.028,-0 -3.54,0.699 -4.534,2.097c-0.995,1.398 -1.492,2.914 -1.492,4.549Z" style="fill:#fff;fill-rule:nonzero;"/><path d="M1327.62,208.141l8.034,-0.886c0.197,1.635 0.709,2.846 1.536,3.634c0.827,0.787 1.92,1.181 3.279,1.181c1.713,0 3.17,-0.788 4.372,-2.363c1.201,-1.575 1.969,-4.844 2.304,-9.807c-2.088,2.422 -4.697,3.633 -7.828,3.633c-3.407,0 -6.346,-1.314 -8.817,-3.943c-2.472,-2.629 -3.707,-6.05 -3.707,-10.265c-0,-4.391 1.304,-7.931 3.913,-10.619c2.61,-2.688 5.933,-4.032 9.97,-4.032c4.391,0 7.995,1.699 10.811,5.096c2.816,3.397 4.224,8.984 4.224,16.763c-0,7.916 -1.467,13.627 -4.401,17.132c-2.935,3.505 -6.755,5.258 -11.461,5.258c-3.387,0 -6.125,-0.901 -8.212,-2.703c-2.087,-1.802 -3.427,-4.495 -4.017,-8.079Zm18.786,-18.136c0,-2.678 -0.615,-4.756 -1.846,-6.233c-1.231,-1.477 -2.653,-2.215 -4.268,-2.215c-1.536,-0 -2.811,0.605 -3.825,1.816c-1.015,1.212 -1.522,3.196 -1.522,5.952c0,2.797 0.552,4.85 1.654,6.159c1.103,1.31 2.482,1.965 4.136,1.965c1.595,-0 2.939,-0.631 4.032,-1.891c1.093,-1.26 1.639,-3.111 1.639,-5.553Z" style="fill:#fff;fill-rule:nonzero;"/><path d="M1449.55,218.155l-8.301,0l0,-31.281c-3.032,2.835 -6.606,4.933 -10.722,6.291l-0,-7.532c2.166,-0.709 4.519,-2.053 7.06,-4.032c2.54,-1.979 4.283,-4.288 5.228,-6.927l6.735,0l-0,43.481Z" style="fill:#fff;fill-rule:nonzero;"/><path d="M1475.99,174.674c4.194,0 7.473,1.497 9.836,4.49c2.816,3.545 4.224,9.423 4.224,17.635c0,8.192 -1.418,14.08 -4.253,17.664c-2.344,2.954 -5.613,4.431 -9.807,4.431c-4.214,-0 -7.611,-1.62 -10.191,-4.86c-2.58,-3.239 -3.87,-9.014 -3.87,-17.324c0,-8.153 1.418,-14.021 4.254,-17.605c2.343,-2.954 5.612,-4.431 9.807,-4.431Zm-0,6.883c-1.005,-0 -1.901,0.32 -2.688,0.96c-0.788,0.64 -1.398,1.787 -1.832,3.441c-0.571,2.147 -0.856,5.76 -0.856,10.841c-0,5.08 0.256,8.571 0.768,10.471c0.512,1.9 1.157,3.166 1.934,3.796c0.778,0.63 1.669,0.945 2.674,0.945c1.004,0 1.9,-0.32 2.688,-0.96c0.787,-0.64 1.398,-1.787 1.831,-3.441c0.571,-2.127 0.857,-5.731 0.857,-10.811c-0,-5.081 -0.256,-8.571 -0.768,-10.472c-0.512,-1.9 -1.157,-3.17 -1.935,-3.81c-0.778,-0.64 -1.669,-0.96 -2.673,-0.96Z" style="fill:#fff;fill-rule:nonzero;"/><path d="M1584.07,218.155l-8.3,0l-0,-31.281c-3.033,2.835 -6.607,4.933 -10.723,6.291l0,-7.532c2.167,-0.709 4.52,-2.053 7.06,-4.032c2.54,-1.979 4.283,-4.288 5.228,-6.927l6.735,0l0,43.481Z" style="fill:#fff;fill-rule:nonzero;"/><path d="M1614.38,218.155l-8.301,0l0,-31.281c-3.032,2.835 -6.606,4.933 -10.722,6.291l-0,-7.532c2.166,-0.709 4.519,-2.053 7.06,-4.032c2.54,-1.979 4.283,-4.288 5.228,-6.927l6.735,0l-0,43.481Z" style="fill:#fff;fill-rule:nonzero;"/><path d="M1698.44,218.155l-8.3,0l0,-31.281c-3.033,2.835 -6.607,4.933 -10.722,6.291l-0,-7.532c2.166,-0.709 4.519,-2.053 7.059,-4.032c2.541,-1.979 4.283,-4.288 5.229,-6.927l6.734,0l0,43.481Z" style="fill:#fff;fill-rule:nonzero;"/><path d="M1738.88,210.445l-0,7.71l-29.096,0c0.315,-2.914 1.26,-5.676 2.836,-8.286c1.575,-2.609 4.687,-6.07 9.334,-10.382c3.742,-3.486 6.036,-5.849 6.882,-7.09c1.143,-1.713 1.714,-3.406 1.714,-5.08c-0,-1.851 -0.498,-3.274 -1.492,-4.268c-0.994,-0.995 -2.368,-1.492 -4.121,-1.492c-1.733,-0 -3.111,0.522 -4.135,1.565c-1.024,1.044 -1.615,2.777 -1.772,5.199l-8.271,-0.827c0.492,-4.569 2.038,-7.847 4.637,-9.836c2.6,-1.989 5.849,-2.984 9.748,-2.984c4.273,0 7.631,1.152 10.073,3.456c2.442,2.304 3.663,5.17 3.663,8.596c-0,1.95 -0.35,3.806 -1.049,5.568c-0.699,1.763 -1.807,3.609 -3.323,5.539c-1.004,1.28 -2.816,3.121 -5.435,5.523c-2.619,2.403 -4.278,3.998 -4.977,4.785c-0.7,0.788 -1.266,1.556 -1.699,2.304l16.483,0Z" style="fill:#fff;fill-rule:nonzero;"/><path d="M1832.96,218.155l-8.301,0l0,-31.281c-3.032,2.835 -6.606,4.933 -10.722,6.291l-0,-7.532c2.166,-0.709 4.519,-2.053 7.06,-4.032c2.54,-1.979 4.283,-4.288 5.228,-6.927l6.735,0l-0,43.481Z" style="fill:#fff;fill-rule:nonzero;"/><path d="M1845.07,206.665l8.034,-0.975c0.256,2.048 0.945,3.613 2.068,4.696c1.122,1.083 2.481,1.625 4.076,1.625c1.713,0 3.156,-0.65 4.327,-1.95c1.172,-1.299 1.758,-3.052 1.758,-5.257c-0,-2.088 -0.561,-3.742 -1.684,-4.963c-1.122,-1.221 -2.491,-1.831 -4.106,-1.831c-1.063,-0 -2.333,0.207 -3.81,0.62l0.916,-6.764c2.245,0.059 3.958,-0.429 5.139,-1.462c1.182,-1.034 1.773,-2.408 1.773,-4.121c-0,-1.457 -0.434,-2.619 -1.3,-3.486c-0.866,-0.866 -2.018,-1.299 -3.456,-1.299c-1.418,-0 -2.629,0.492 -3.633,1.477c-1.005,0.984 -1.615,2.422 -1.832,4.312l-7.65,-1.299c0.532,-2.619 1.334,-4.712 2.407,-6.277c1.073,-1.566 2.57,-2.797 4.49,-3.693c1.92,-0.896 4.072,-1.344 6.454,-1.344c4.077,0 7.346,1.3 9.807,3.899c2.028,2.127 3.043,4.53 3.043,7.208c-0,3.8 -2.078,6.833 -6.233,9.098c2.481,0.531 4.465,1.723 5.952,3.574c1.487,1.851 2.23,4.086 2.23,6.705c0,3.801 -1.388,7.04 -4.165,9.718c-2.776,2.678 -6.232,4.018 -10.368,4.018c-3.919,-0 -7.168,-1.128 -9.748,-3.383c-2.579,-2.254 -4.076,-5.203 -4.489,-8.846Z" style="fill:#fff;fill-rule:nonzero;"/><path d="M1950.67,218.155l-8.301,0l0,-31.281c-3.032,2.835 -6.606,4.933 -10.722,6.291l-0,-7.532c2.166,-0.709 4.519,-2.053 7.06,-4.032c2.54,-1.979 4.283,-4.288 5.228,-6.927l6.735,0l-0,43.481Z" style="fill:#fff;fill-rule:nonzero;"/><path d="M1979.35,218.155l-0,-8.714l-17.723,0l-0,-7.266l18.786,-27.501l6.971,0l0,27.471l5.376,0l0,7.296l-5.376,0l0,8.714l-8.034,0Zm-0,-16.01l-0,-14.799l-9.955,14.799l9.955,0Z" style="fill:#fff;fill-rule:nonzero;"/><path d="M2085.19,218.155l-8.3,0l-0,-31.281c-3.033,2.835 -6.607,4.933 -10.723,6.291l0,-7.532c2.167,-0.709 4.52,-2.053 7.06,-4.032c2.54,-1.979 4.283,-4.288 5.228,-6.927l6.735,0l0,43.481Z" style="fill:#fff;fill-rule:nonzero;"/><path d="M2097.71,207.019l8.27,-0.857c0.237,1.871 0.936,3.353 2.098,4.446c1.161,1.093 2.501,1.639 4.017,1.639c1.733,0 3.2,-0.704 4.401,-2.112c1.201,-1.408 1.802,-3.53 1.802,-6.365c-0,-2.659 -0.596,-4.653 -1.787,-5.982c-1.192,-1.329 -2.742,-1.994 -4.652,-1.994c-2.383,0 -4.52,1.054 -6.41,3.161l-6.735,-0.975l4.253,-22.538l21.948,0l-0,7.769l-15.656,-0l-1.3,7.355c1.851,-0.925 3.742,-1.388 5.672,-1.388c3.682,-0 6.804,1.339 9.364,4.017c2.56,2.678 3.84,6.154 3.84,10.427c-0,3.564 -1.034,6.745 -3.102,9.541c-2.816,3.82 -6.725,5.731 -11.727,5.731c-3.997,-0 -7.256,-1.074 -9.777,-3.22c-2.521,-2.147 -4.027,-5.032 -4.519,-8.655Z" style="fill:#fff;fill-rule:nonzero;"/><path d="M2202.9,218.155l-8.3,0l-0,-31.281c-3.033,2.835 -6.607,4.933 -10.723,6.291l0,-7.532c2.167,-0.709 4.52,-2.053 7.06,-4.032c2.54,-1.979 4.283,-4.288 5.228,-6.927l6.735,0l0,43.481Z" style="fill:#fff;fill-rule:nonzero;"/><path d="M2243.43,185.456l-8.034,0.886c-0.197,-1.654 -0.709,-2.875 -1.536,-3.663c-0.827,-0.787 -1.901,-1.181 -3.22,-1.181c-1.753,-0 -3.235,0.787 -4.446,2.363c-1.211,1.575 -1.974,4.854 -2.289,9.836c2.068,-2.442 4.638,-3.663 7.71,-3.663c3.466,0 6.434,1.32 8.906,3.959c2.471,2.638 3.707,6.045 3.707,10.22c-0,4.431 -1.3,7.985 -3.899,10.663c-2.6,2.678 -5.938,4.018 -10.014,4.018c-4.372,-0 -7.966,-1.699 -10.782,-5.096c-2.816,-3.397 -4.224,-8.965 -4.224,-16.704c0,-7.936 1.467,-13.657 4.402,-17.162c2.934,-3.505 6.744,-5.258 11.431,-5.258c3.289,0 6.011,0.921 8.167,2.762c2.157,1.841 3.53,4.515 4.121,8.02Zm-18.816,18.107c0,2.698 0.62,4.78 1.861,6.247c1.241,1.467 2.658,2.201 4.254,2.201c1.536,0 2.816,-0.601 3.84,-1.802c1.024,-1.201 1.536,-3.17 1.536,-5.908c-0,-2.816 -0.552,-4.878 -1.655,-6.188c-1.102,-1.309 -2.481,-1.964 -4.135,-1.964c-1.595,-0 -2.944,0.625 -4.047,1.876c-1.103,1.25 -1.654,3.096 -1.654,5.538Z" style="fill:#fff;fill-rule:nonzero;"/><path d="M2337.42,218.155l-8.301,0l0,-31.281c-3.032,2.835 -6.606,4.933 -10.722,6.291l-0,-7.532c2.166,-0.709 4.519,-2.053 7.06,-4.032c2.54,-1.979 4.283,-4.288 5.228,-6.927l6.735,0l-0,43.481Z" style="fill:#fff;fill-rule:nonzero;"/><path d="M2349.83,183.152l-0,-7.71l28.386,0l0,6.026c-2.343,2.304 -4.726,5.613 -7.148,9.925c-2.422,4.313 -4.268,8.896 -5.538,13.75c-1.271,4.854 -1.896,9.192 -1.876,13.012l-8.005,0c0.138,-5.986 1.373,-12.091 3.707,-18.314c2.334,-6.223 5.45,-11.786 9.349,-16.689l-18.875,-0Z" style="fill:#fff;fill-rule:nonzero;"/><path d="M2455.13,218.155l-8.301,0l0,-31.281c-3.032,2.835 -6.606,4.933 -10.722,6.291l-0,-7.532c2.166,-0.709 4.519,-2.053 7.06,-4.032c2.54,-1.979 4.283,-4.288 5.228,-6.927l6.735,0l-0,43.481Z" style="fill:#fff;fill-rule:nonzero;"/><path d="M2474.66,194.79c-2.147,-0.906 -3.707,-2.151 -4.682,-3.737c-0.975,-1.585 -1.462,-3.323 -1.462,-5.213c-0,-3.23 1.127,-5.898 3.382,-8.005c2.255,-2.107 5.459,-3.161 9.615,-3.161c4.115,0 7.31,1.054 9.585,3.161c2.274,2.107 3.412,4.775 3.412,8.005c-0,2.009 -0.522,3.796 -1.566,5.361c-1.044,1.566 -2.511,2.762 -4.401,3.589c2.402,0.965 4.229,2.373 5.479,4.224c1.251,1.851 1.876,3.988 1.876,6.41c-0,3.997 -1.275,7.247 -3.825,9.748c-2.551,2.501 -5.943,3.751 -10.176,3.751c-3.939,0 -7.218,-1.034 -9.837,-3.101c-3.091,-2.442 -4.637,-5.79 -4.637,-10.044c-0,-2.343 0.581,-4.494 1.742,-6.454c1.162,-1.959 2.994,-3.471 5.495,-4.534Zm1.713,-8.359c-0,1.654 0.468,2.944 1.403,3.869c0.935,0.926 2.181,1.389 3.737,1.389c1.575,-0 2.835,-0.468 3.781,-1.404c0.945,-0.935 1.417,-2.23 1.417,-3.884c0,-1.556 -0.467,-2.801 -1.403,-3.736c-0.935,-0.936 -2.171,-1.404 -3.707,-1.404c-1.595,0 -2.865,0.473 -3.81,1.418c-0.946,0.946 -1.418,2.196 -1.418,3.752Zm-0.768,18.55c-0,2.284 0.586,4.066 1.757,5.346c1.172,1.28 2.634,1.92 4.387,1.92c1.713,0 3.131,-0.615 4.253,-1.846c1.123,-1.231 1.684,-3.008 1.684,-5.332c0,-2.028 -0.571,-3.657 -1.713,-4.888c-1.142,-1.231 -2.59,-1.846 -4.342,-1.846c-2.029,-0 -3.54,0.699 -4.534,2.097c-0.995,1.398 -1.492,2.914 -1.492,4.549Z" style="fill:#fff;fill-rule:nonzero;"/></g><g><path d="M2587.09,327.571l-8.3,-0l-0,-31.281c-3.033,2.835 -6.607,4.933 -10.723,6.291l0,-7.532c2.166,-0.709 4.52,-2.053 7.06,-4.032c2.54,-1.979 4.283,-4.288 5.228,-6.927l6.735,0l-0,43.481Z" style="fill:#fff;fill-rule:nonzero;"/><path d="M2606.62,304.206c-2.147,-0.906 -3.707,-2.151 -4.682,-3.737c-0.975,-1.585 -1.462,-3.323 -1.462,-5.213c-0,-3.23 1.127,-5.898 3.382,-8.005c2.255,-2.107 5.46,-3.161 9.615,-3.161c4.116,0 7.311,1.054 9.585,3.161c2.275,2.107 3.412,4.775 3.412,8.005c-0,2.008 -0.522,3.795 -1.566,5.361c-1.043,1.566 -2.511,2.762 -4.401,3.589c2.402,0.965 4.229,2.373 5.479,4.224c1.251,1.851 1.876,3.988 1.876,6.41c0,3.997 -1.275,7.247 -3.825,9.748c-2.55,2.5 -5.942,3.751 -10.176,3.751c-3.939,-0 -7.217,-1.034 -9.836,-3.102c-3.092,-2.441 -4.638,-5.789 -4.638,-10.043c-0,-2.343 0.581,-4.494 1.743,-6.454c1.162,-1.959 2.993,-3.471 5.494,-4.534Zm1.713,-8.359c0,1.654 0.468,2.944 1.403,3.869c0.936,0.926 2.181,1.388 3.737,1.388c1.575,0 2.836,-0.467 3.781,-1.403c0.945,-0.935 1.418,-2.23 1.418,-3.884c-0,-1.556 -0.468,-2.801 -1.403,-3.737c-0.936,-0.935 -2.172,-1.403 -3.708,-1.403c-1.595,0 -2.865,0.473 -3.81,1.418c-0.945,0.945 -1.418,2.196 -1.418,3.752Zm-0.768,18.55c0,2.284 0.586,4.066 1.758,5.346c1.171,1.28 2.634,1.92 4.386,1.92c1.713,0 3.131,-0.615 4.254,-1.846c1.122,-1.231 1.683,-3.008 1.683,-5.332c0,-2.028 -0.571,-3.657 -1.713,-4.888c-1.142,-1.231 -2.589,-1.846 -4.342,-1.846c-2.028,-0 -3.54,0.699 -4.534,2.097c-0.995,1.398 -1.492,2.914 -1.492,4.549Z" style="fill:#fff;fill-rule:nonzero;"/><path d="M2587.09,452.519l-8.3,-0l-0,-31.281c-3.033,2.835 -6.607,4.933 -10.723,6.291l0,-7.532c2.166,-0.709 4.52,-2.053 7.06,-4.032c2.54,-1.979 4.283,-4.288 5.228,-6.927l6.735,0l-0,43.481Z" style="fill:#fff;fill-rule:nonzero;"/><path d="M2599.5,417.516l0,-7.71l28.387,0l-0,6.026c-2.344,2.304 -4.727,5.612 -7.149,9.925c-2.422,4.313 -4.268,8.896 -5.538,13.75c-1.27,4.854 -1.896,9.192 -1.876,13.012l-8.005,-0c0.138,-5.987 1.374,-12.091 3.707,-18.314c2.334,-6.223 5.45,-11.786 9.349,-16.689l-18.875,-0Z" style="fill:#fff;fill-rule:nonzero;"/><path d="M2587.09,577.467l-8.3,-0l-0,-31.281c-3.033,2.835 -6.607,4.932 -10.723,6.291l0,-7.532c2.166,-0.709 4.52,-2.053 7.06,-4.032c2.54,-1.979 4.283,-4.288 5.228,-6.927l6.735,0l-0,43.481Z" style="fill:#fff;fill-rule:nonzero;"/><path d="M2627.62,544.768l-8.035,0.886c-0.197,-1.654 -0.709,-2.875 -1.536,-3.663c-0.827,-0.788 -1.9,-1.181 -3.219,-1.181c-1.753,-0 -3.235,0.787 -4.446,2.363c-1.211,1.575 -1.974,4.854 -2.289,9.836c2.068,-2.442 4.637,-3.663 7.709,-3.663c3.466,0 6.435,1.32 8.906,3.958c2.472,2.639 3.707,6.046 3.707,10.221c0,4.43 -1.299,7.985 -3.899,10.663c-2.599,2.678 -5.937,4.017 -10.013,4.017c-4.372,0 -7.966,-1.698 -10.782,-5.095c-2.816,-3.397 -4.224,-8.965 -4.224,-16.704c0,-7.936 1.467,-13.657 4.401,-17.162c2.935,-3.505 6.745,-5.258 11.432,-5.258c3.288,0 6.011,0.921 8.167,2.762c2.156,1.841 3.53,4.514 4.121,8.02Zm-18.816,18.107c-0,2.698 0.62,4.78 1.861,6.247c1.24,1.467 2.658,2.201 4.253,2.201c1.536,-0 2.816,-0.601 3.84,-1.802c1.024,-1.201 1.536,-3.17 1.536,-5.908c0,-2.816 -0.551,-4.879 -1.654,-6.188c-1.103,-1.31 -2.481,-1.964 -4.135,-1.964c-1.595,-0 -2.944,0.625 -4.047,1.875c-1.103,1.251 -1.654,3.097 -1.654,5.539Z" style="fill:#fff;fill-rule:nonzero;"/><path d="M2587.09,702.415l-8.3,-0l-0,-31.282c-3.033,2.836 -6.607,4.933 -10.723,6.292l0,-7.532c2.166,-0.709 4.52,-2.053 7.06,-4.032c2.54,-1.979 4.283,-4.288 5.228,-6.927l6.735,0l-0,43.481Z" style="fill:#fff;fill-rule:nonzero;"/><path d="M2599.61,691.279l8.271,-0.857c0.236,1.871 0.935,3.353 2.097,4.446c1.162,1.093 2.501,1.639 4.018,1.639c1.732,0 3.2,-0.704 4.401,-2.112c1.201,-1.408 1.802,-3.53 1.802,-6.365c-0,-2.659 -0.596,-4.653 -1.787,-5.982c-1.192,-1.329 -2.743,-1.994 -4.653,-1.994c-2.383,0 -4.519,1.054 -6.41,3.161l-6.734,-0.975l4.253,-22.538l21.947,0l0,7.769l-15.655,-0l-1.3,7.355c1.851,-0.926 3.742,-1.388 5.672,-1.388c3.682,-0 6.803,1.339 9.363,4.017c2.56,2.678 3.84,6.154 3.84,10.427c0,3.564 -1.034,6.744 -3.101,9.541c-2.816,3.82 -6.725,5.73 -11.727,5.73c-3.998,0 -7.257,-1.073 -9.777,-3.219c-2.521,-2.147 -4.027,-5.032 -4.52,-8.655Z" style="fill:#fff;fill-rule:nonzero;"/><path d="M2587.09,827.363l-8.3,-0l-0,-31.282c-3.033,2.836 -6.607,4.933 -10.723,6.292l0,-7.532c2.166,-0.709 4.52,-2.053 7.06,-4.032c2.54,-1.979 4.283,-4.288 5.228,-6.927l6.735,0l-0,43.481Z" style="fill:#fff;fill-rule:nonzero;"/><path d="M2615.77,827.363l-0,-8.714l-17.723,-0l-0,-7.267l18.786,-27.5l6.971,0l0,27.471l5.376,-0l0,7.296l-5.376,-0l0,8.714l-8.034,-0Zm-0,-16.01l-0,-14.799l-9.955,14.799l9.955,-0Z" style="fill:#fff;fill-rule:nonzero;"/><path d="M2587.09,952.311l-8.3,-0l-0,-31.282c-3.033,2.836 -6.607,4.933 -10.723,6.292l0,-7.532c2.166,-0.709 4.52,-2.053 7.06,-4.032c2.54,-1.979 4.283,-4.288 5.228,-6.927l6.735,-0l-0,43.481Z" style="fill:#fff;fill-rule:nonzero;"/><path d="M2599.2,940.82l8.034,-0.975c0.256,2.048 0.945,3.614 2.068,4.697c1.122,1.083 2.481,1.625 4.076,1.625c1.713,-0 3.156,-0.65 4.328,-1.95c1.171,-1.3 1.757,-3.052 1.757,-5.258c0,-2.087 -0.561,-3.741 -1.684,-4.962c-1.122,-1.221 -2.491,-1.832 -4.105,-1.832c-1.064,0 -2.334,0.207 -3.811,0.621l0.916,-6.765c2.245,0.059 3.958,-0.428 5.14,-1.462c1.181,-1.034 1.772,-2.407 1.772,-4.12c-0,-1.458 -0.433,-2.619 -1.3,-3.486c-0.866,-0.866 -2.018,-1.3 -3.456,-1.3c-1.418,0 -2.629,0.493 -3.633,1.477c-1.004,0.985 -1.615,2.422 -1.831,4.313l-7.651,-1.3c0.532,-2.619 1.334,-4.711 2.407,-6.277c1.074,-1.565 2.57,-2.796 4.49,-3.692c1.92,-0.896 4.072,-1.344 6.454,-1.344c4.077,-0 7.346,1.3 9.807,3.899c2.029,2.127 3.043,4.529 3.043,7.207c-0,3.801 -2.078,6.834 -6.233,9.098c2.481,0.532 4.465,1.723 5.952,3.575c1.487,1.851 2.23,4.086 2.23,6.705c0,3.8 -1.388,7.04 -4.165,9.718c-2.776,2.678 -6.232,4.017 -10.368,4.017c-3.918,0 -7.168,-1.127 -9.747,-3.382c-2.58,-2.255 -4.077,-5.204 -4.49,-8.847Z" style="fill:#fff;fill-rule:nonzero;"/><path d="M2587.09,1077.26l-8.3,-0l-0,-31.282c-3.033,2.836 -6.607,4.933 -10.723,6.292l0,-7.532c2.166,-0.709 4.52,-2.053 7.06,-4.032c2.54,-1.979 4.283,-4.288 5.228,-6.927l6.735,-0l-0,43.481Z" style="fill:#fff;fill-rule:nonzero;"/><path d="M2627.53,1069.55l0,7.71l-29.095,-0c0.315,-2.915 1.26,-5.677 2.835,-8.286c1.576,-2.609 4.687,-6.07 9.335,-10.383c3.741,-3.485 6.035,-5.848 6.882,-7.089c1.142,-1.713 1.713,-3.407 1.713,-5.081c0,-1.851 -0.497,-3.273 -1.491,-4.268c-0.995,-0.994 -2.368,-1.492 -4.121,-1.492c-1.733,0 -3.111,0.522 -4.135,1.566c-1.024,1.044 -1.615,2.777 -1.773,5.199l-8.271,-0.827c0.493,-4.569 2.039,-7.848 4.638,-9.837c2.599,-1.989 5.849,-2.983 9.748,-2.983c4.273,-0 7.631,1.152 10.072,3.456c2.442,2.304 3.663,5.169 3.663,8.596c0,1.949 -0.349,3.805 -1.048,5.568c-0.7,1.762 -1.807,3.608 -3.324,5.538c-1.004,1.28 -2.816,3.121 -5.435,5.524c-2.619,2.402 -4.278,3.997 -4.977,4.785c-0.699,0.788 -1.265,1.556 -1.698,2.304l16.482,0Z" style="fill:#fff;fill-rule:nonzero;"/><path d="M2587.09,1202.21l-8.3,-0l-0,-31.282c-3.033,2.836 -6.607,4.933 -10.723,6.292l0,-7.532c2.166,-0.709 4.52,-2.053 7.06,-4.032c2.54,-1.979 4.283,-4.288 5.228,-6.927l6.735,-0l-0,43.481Z" style="fill:#fff;fill-rule:nonzero;"/><path d="M2617.4,1202.21l-8.3,-0l0,-31.282c-3.032,2.836 -6.607,4.933 -10.722,6.292l-0,-7.532c2.166,-0.709 4.519,-2.053 7.059,-4.032c2.541,-1.979 4.283,-4.288 5.229,-6.927l6.734,-0l0,43.481Z" style="fill:#fff;fill-rule:nonzero;"/><path d="M2587.09,1327.15l-8.3,-0l-0,-31.282c-3.033,2.836 -6.607,4.933 -10.723,6.292l0,-7.532c2.166,-0.709 4.52,-2.053 7.06,-4.032c2.54,-1.979 4.283,-4.288 5.228,-6.927l6.735,-0l-0,43.481Z" style="fill:#fff;fill-rule:nonzero;"/><path d="M2613.53,1283.67c4.194,-0 7.473,1.496 9.836,4.49c2.816,3.544 4.224,9.422 4.224,17.634c0,8.192 -1.418,14.08 -4.253,17.664c-2.344,2.954 -5.613,4.431 -9.807,4.431c-4.214,0 -7.611,-1.62 -10.191,-4.859c-2.58,-3.239 -3.869,-9.014 -3.869,-17.324c-0,-8.153 1.417,-14.021 4.253,-17.605c2.344,-2.954 5.612,-4.431 9.807,-4.431Zm-0,6.882c-1.004,0 -1.9,0.32 -2.688,0.96c-0.788,0.64 -1.398,1.787 -1.831,3.442c-0.572,2.146 -0.857,5.76 -0.857,10.84c-0,5.081 0.256,8.571 0.768,10.472c0.512,1.9 1.157,3.165 1.935,3.795c0.778,0.63 1.669,0.946 2.673,0.946c1.004,-0 1.9,-0.32 2.688,-0.96c0.788,-0.64 1.398,-1.788 1.831,-3.442c0.571,-2.126 0.857,-5.73 0.857,-10.811c-0,-5.08 -0.256,-8.571 -0.768,-10.471c-0.512,-1.901 -1.157,-3.171 -1.935,-3.811c-0.778,-0.64 -1.669,-0.96 -2.673,-0.96Z" style="fill:#fff;fill-rule:nonzero;"/><path d="M2566.03,1442.09l8.034,-0.886c0.197,1.634 0.709,2.845 1.536,3.633c0.828,0.788 1.92,1.182 3.279,1.182c1.713,-0 3.171,-0.788 4.372,-2.364c1.201,-1.575 1.969,-4.844 2.304,-9.806c-2.087,2.422 -4.697,3.633 -7.828,3.633c-3.407,-0 -6.346,-1.315 -8.817,-3.943c-2.471,-2.629 -3.707,-6.051 -3.707,-10.265c-0,-4.391 1.305,-7.931 3.914,-10.619c2.609,-2.688 5.932,-4.032 9.969,-4.032c4.391,-0 7.995,1.698 10.811,5.095c2.816,3.397 4.224,8.985 4.224,16.763c0,7.917 -1.467,13.627 -4.401,17.133c-2.934,3.505 -6.755,5.258 -11.461,5.258c-3.387,-0 -6.124,-0.901 -8.212,-2.703c-2.087,-1.802 -3.426,-4.495 -4.017,-8.079Zm18.786,-18.137c0,-2.678 -0.615,-4.755 -1.846,-6.232c-1.23,-1.477 -2.653,-2.216 -4.268,-2.216c-1.536,0 -2.811,0.606 -3.825,1.817c-1.014,1.211 -1.521,3.195 -1.521,5.952c-0,2.796 0.551,4.849 1.654,6.159c1.102,1.309 2.481,1.964 4.135,1.964c1.595,0 2.939,-0.63 4.032,-1.89c1.093,-1.261 1.639,-3.112 1.639,-5.554Z" style="fill:#fff;fill-rule:nonzero;"/><path d="M2572.97,1553.68c-2.147,-0.905 -3.708,-2.151 -4.682,-3.736c-0.975,-1.585 -1.462,-3.323 -1.462,-5.214c-0,-3.229 1.127,-5.898 3.382,-8.005c2.254,-2.107 5.459,-3.16 9.614,-3.16c4.116,-0 7.311,1.053 9.586,3.16c2.274,2.107 3.411,4.776 3.411,8.005c0,2.009 -0.521,3.796 -1.565,5.362c-1.044,1.565 -2.511,2.761 -4.401,3.588c2.402,0.965 4.229,2.373 5.479,4.224c1.25,1.852 1.876,3.988 1.876,6.41c-0,3.998 -1.275,7.247 -3.826,9.748c-2.55,2.501 -5.942,3.751 -10.176,3.751c-3.938,0 -7.217,-1.033 -9.836,-3.101c-3.092,-2.442 -4.637,-5.79 -4.637,-10.043c-0,-2.344 0.581,-4.495 1.742,-6.454c1.162,-1.96 2.994,-3.471 5.495,-4.535Zm1.713,-8.359c-0,1.654 0.467,2.944 1.403,3.87c0.935,0.925 2.181,1.388 3.736,1.388c1.576,-0 2.836,-0.468 3.781,-1.403c0.946,-0.936 1.418,-2.23 1.418,-3.884c0,-1.556 -0.467,-2.802 -1.403,-3.737c-0.935,-0.935 -2.171,-1.403 -3.707,-1.403c-1.595,-0 -2.865,0.472 -3.81,1.418c-0.946,0.945 -1.418,2.195 -1.418,3.751Zm-0.768,18.55c-0,2.285 0.586,4.067 1.757,5.347c1.172,1.28 2.634,1.92 4.387,1.92c1.713,-0 3.131,-0.616 4.253,-1.846c1.123,-1.231 1.684,-3.008 1.684,-5.332c0,-2.028 -0.571,-3.658 -1.713,-4.889c-1.142,-1.231 -2.59,-1.846 -4.342,-1.846c-2.029,0 -3.54,0.699 -4.535,2.097c-0.994,1.398 -1.491,2.915 -1.491,4.549Z" style="fill:#fff;fill-rule:nonzero;"/><path d="M2565.85,1667l-0,-7.709l28.386,-0l0,6.026c-2.343,2.304 -4.726,5.612 -7.148,9.925c-2.422,4.312 -4.268,8.896 -5.539,13.75c-1.27,4.854 -1.895,9.191 -1.875,13.011l-8.005,0c0.138,-5.986 1.373,-12.091 3.707,-18.313c2.333,-6.223 5.45,-11.786 9.349,-16.69l-18.875,0Z" style="fill:#fff;fill-rule:nonzero;"/><path d="M2593.97,1794.25l-8.034,0.886c-0.197,-1.654 -0.709,-2.875 -1.536,-3.662c-0.827,-0.788 -1.9,-1.182 -3.22,-1.182c-1.752,0 -3.234,0.788 -4.445,2.363c-1.211,1.576 -1.974,4.854 -2.29,9.836c2.068,-2.441 4.638,-3.662 7.71,-3.662c3.466,-0 6.434,1.319 8.906,3.958c2.471,2.639 3.707,6.045 3.707,10.22c-0,4.431 -1.3,7.985 -3.899,10.664c-2.6,2.678 -5.937,4.017 -10.014,4.017c-4.371,-0 -7.965,-1.699 -10.781,-5.096c-2.816,-3.397 -4.224,-8.965 -4.224,-16.704c-0,-7.936 1.467,-13.656 4.401,-17.161c2.934,-3.506 6.745,-5.258 11.431,-5.258c3.289,-0 6.011,0.92 8.168,2.762c2.156,1.841 3.53,4.514 4.12,8.019Zm-18.816,18.107c0,2.698 0.621,4.781 1.861,6.248c1.241,1.467 2.659,2.2 4.254,2.2c1.536,0 2.816,-0.6 3.84,-1.802c1.024,-1.201 1.536,-3.17 1.536,-5.907c-0,-2.816 -0.552,-4.879 -1.654,-6.189c-1.103,-1.309 -2.482,-1.964 -4.136,-1.964c-1.595,0 -2.944,0.625 -4.046,1.876c-1.103,1.25 -1.655,3.096 -1.655,5.538Z" style="fill:#fff;fill-rule:nonzero;"/><path d="M2565.97,1940.76l8.271,-0.856c0.236,1.87 0.935,3.352 2.097,4.445c1.162,1.093 2.501,1.64 4.017,1.64c1.733,-0 3.2,-0.704 4.401,-2.112c1.202,-1.408 1.802,-3.53 1.802,-6.366c0,-2.658 -0.595,-4.652 -1.787,-5.982c-1.191,-1.329 -2.742,-1.993 -4.652,-1.993c-2.383,-0 -4.52,1.053 -6.41,3.16l-6.735,-0.975l4.254,-22.537l21.947,-0l-0,7.768l-15.656,0l-1.299,7.355c1.851,-0.925 3.741,-1.388 5.671,-1.388c3.683,0 6.804,1.339 9.364,4.017c2.56,2.678 3.84,6.154 3.84,10.427c-0,3.565 -1.034,6.745 -3.102,9.541c-2.816,3.821 -6.725,5.731 -11.726,5.731c-3.998,-0 -7.257,-1.073 -9.778,-3.22c-2.52,-2.146 -4.027,-5.031 -4.519,-8.655Z" style="fill:#fff;fill-rule:nonzero;"/><path d="M2582.13,2076.84l0,-8.714l-17.723,0l0,-7.266l18.787,-27.5l6.971,-0l-0,27.47l5.376,0l-0,7.296l-5.376,0l-0,8.714l-8.035,0Zm0,-16.01l0,-14.798l-9.954,14.798l9.954,0Z" style="fill:#fff;fill-rule:nonzero;"/><path d="M2565.56,2190.3l8.035,-0.975c0.256,2.048 0.945,3.614 2.068,4.697c1.122,1.083 2.481,1.624 4.076,1.624c1.713,0 3.156,-0.65 4.327,-1.949c1.172,-1.3 1.758,-3.053 1.758,-5.258c-0,-2.088 -0.561,-3.742 -1.684,-4.963c-1.122,-1.221 -2.491,-1.831 -4.106,-1.831c-1.063,-0 -2.333,0.207 -3.81,0.62l0.915,-6.764c2.245,0.059 3.959,-0.428 5.14,-1.462c1.182,-1.034 1.772,-2.408 1.772,-4.121c0,-1.457 -0.433,-2.619 -1.299,-3.485c-0.867,-0.867 -2.019,-1.3 -3.456,-1.3c-1.418,-0 -2.629,0.492 -3.633,1.477c-1.005,0.984 -1.615,2.422 -1.832,4.312l-7.65,-1.299c0.531,-2.619 1.334,-4.712 2.407,-6.277c1.073,-1.566 2.57,-2.796 4.49,-3.692c1.92,-0.896 4.071,-1.344 6.454,-1.344c4.076,-0 7.345,1.299 9.807,3.899c2.028,2.126 3.042,4.529 3.042,7.207c0,3.801 -2.077,6.833 -6.232,9.098c2.481,0.532 4.465,1.723 5.952,3.574c1.486,1.851 2.23,4.086 2.23,6.705c-0,3.801 -1.388,7.04 -4.165,9.718c-2.777,2.679 -6.233,4.018 -10.368,4.018c-3.919,-0 -7.168,-1.128 -9.748,-3.382c-2.579,-2.255 -4.076,-5.204 -4.49,-8.847Z" style="fill:#fff;fill-rule:nonzero;"/><path d="M2593.88,2319.03l-0,7.709l-29.096,0c0.315,-2.914 1.261,-5.676 2.836,-8.285c1.575,-2.61 4.687,-6.071 9.334,-10.383c3.742,-3.486 6.036,-5.849 6.883,-7.089c1.142,-1.714 1.713,-3.407 1.713,-5.081c-0,-1.851 -0.497,-3.274 -1.492,-4.268c-0.994,-0.995 -2.368,-1.492 -4.12,-1.492c-1.733,-0 -3.112,0.522 -4.136,1.565c-1.024,1.044 -1.615,2.777 -1.772,5.199l-8.271,-0.827c0.492,-4.568 2.038,-7.847 4.638,-9.836c2.599,-1.989 5.848,-2.984 9.747,-2.984c4.274,0 7.631,1.152 10.073,3.456c2.442,2.304 3.663,5.17 3.663,8.596c-0,1.95 -0.35,3.806 -1.049,5.568c-0.699,1.763 -1.807,3.609 -3.323,5.539c-1.004,1.28 -2.816,3.121 -5.435,5.523c-2.619,2.403 -4.278,3.998 -4.977,4.786c-0.699,0.787 -1.265,1.555 -1.699,2.304l16.483,-0Z" style="fill:#fff;fill-rule:nonzero;"/><path d="M2587.09,2451.69l-8.3,0l-0,-31.281c-3.033,2.836 -6.607,4.933 -10.723,6.292l0,-7.533c2.166,-0.709 4.52,-2.053 7.06,-4.032c2.54,-1.979 4.283,-4.288 5.228,-6.927l6.735,0l-0,43.481Z" style="fill:#fff;fill-rule:nonzero;"/></g><path d="M2742.03,2574.1l0,142.438l-143.606,0" style="fill:none;stroke:#fff;stroke-width:12.5px;"/><path d="M30.241,2600.73l-0,142.438l143.606,0" style="fill:none;stroke:#fff;stroke-width:12.5px;"/><path d="M30.801,174.407l0,-142.439l143.606,0" style="fill:none;stroke:#fff;stroke-width:12.5px;"/><path d="M2746.42,173.533l0,-142.439l-143.606,0" style="fill:none;stroke:#fff;stroke-width:12.5px;"/><g><path d="M1787.64,2570.81c0,0 -0.769,104.146 -0.619,130.125c0.065,11.408 14.111,22.38 25.511,22.813c19.938,0.757 67.676,1.668 67.676,0.709c0.53,13.573 0.047,28.44 0.245,40.093c0,0 -68.013,2.722 -87.705,-0.489c-18.678,-3.046 -48.655,-31.876 -48.747,-47.517c-0.2,-33.837 0.569,-145.489 0.569,-145.489c13.236,0.054 31.463,-0.207 43.07,-0.245Z" style="fill:#fff;fill-rule:nonzero;"/><path d="M1375.35,2765.3l-85.363,-189.775l45.805,-0l57.85,136.197l57.85,-136.197l45.656,-0l-85.214,189.775l-36.584,0Z" style="fill:#fff;fill-rule:nonzero;"/><path d="M1044.99,2580.22c-0.798,-0 -75.734,-1.063 -113.487,-1.039c-50.587,0.032 -46.557,105.216 0.428,105.162c29.548,-0.033 42.736,-0.622 75.996,-0.57c22.688,0.036 23.266,50.011 1.881,50.351c-29.565,0.469 -81.503,0.927 -105.518,0.519l-0.007,26.193c-0,0 87.35,0.395 118.058,0.497c17.02,0.057 28.743,-18.683 31.77,-34.998c3.147,-16.963 -5.022,-66.417 -38.931,-66.109c-27.574,0.251 -41.305,-0.74 -69.66,-0.367c-25.805,0.339 -31.976,-51.647 -1.408,-52.214c27.26,-0.506 63.154,-0.454 100.738,-1.251l0.14,-26.174Z" style="fill:#fff;stroke:#fff;stroke-width:12.5px;"/><path d="M1182.66,2577.11l-0,29.709c-5.452,0.544 -10.587,1.844 -15.405,3.9c-6.552,2.795 -12.193,6.864 -16.923,12.205c-4.729,5.341 -8.461,12.163 -11.195,20.467c-2.734,8.304 -4.101,17.63 -4.101,27.978c0,10.432 1.367,19.862 4.101,28.291c2.734,8.429 6.596,15.418 11.586,20.968c4.99,5.55 10.718,9.702 17.183,12.456c4.6,1.959 9.518,3.221 14.754,3.787l-0,29.722c-12.218,-0.604 -23.32,-2.865 -33.304,-6.783c-11.803,-4.632 -21.653,-11.162 -29.55,-19.591c-7.898,-8.429 -13.864,-18.569 -17.9,-30.419c-4.035,-11.851 -6.053,-24.661 -6.053,-38.431c0,-14.104 2.105,-27.039 6.314,-38.806c4.209,-11.767 10.305,-21.782 18.29,-30.044c7.984,-8.262 17.704,-14.584 29.159,-18.965c9.858,-3.77 20.872,-5.918 33.044,-6.444Zm14.346,0.11c16.265,0.948 30.473,4.729 42.628,11.341c14.189,7.72 24.929,18.694 32.219,32.923c7.29,14.229 10.935,30.941 10.935,50.135c-0,14.188 -1.997,27.081 -5.989,38.682c-3.992,11.6 -9.98,21.656 -17.964,30.168c-7.984,8.513 -17.791,15.022 -29.42,19.529c-9.64,3.735 -20.442,5.923 -32.409,6.562l0,-29.862c6.914,-0.936 13.399,-3.142 19.456,-6.619c8.288,-4.757 14.884,-12.101 19.787,-22.032c4.904,-9.931 7.355,-22.157 7.355,-36.678c0,-13.436 -2.256,-25.078 -6.769,-34.926c-4.513,-9.847 -10.957,-17.296 -19.331,-22.345c-6.163,-3.715 -12.996,-6.064 -20.498,-7.045l0,-29.833Z" style="fill:#fff;fill-rule:nonzero;"/><path d="M1592.49,2574.72l0,29.709c-5.452,0.544 -10.586,1.844 -15.404,3.899c-6.553,2.796 -12.194,6.865 -16.923,12.206c-4.73,5.341 -8.462,12.163 -11.196,20.467c-2.733,8.304 -4.1,17.63 -4.1,27.978c-0,10.432 1.367,19.862 4.1,28.291c2.734,8.429 6.596,15.418 11.586,20.968c4.99,5.55 10.718,9.702 17.184,12.456c4.599,1.959 9.517,3.221 14.753,3.787l0,29.721c-12.218,-0.603 -23.32,-2.864 -33.304,-6.782c-11.802,-4.632 -21.652,-11.162 -29.55,-19.591c-7.897,-8.429 -13.864,-18.569 -17.899,-30.419c-4.036,-11.851 -6.053,-24.661 -6.053,-38.431c-0,-14.104 2.104,-27.039 6.313,-38.806c4.209,-11.767 10.306,-21.782 18.29,-30.044c7.984,-8.262 17.704,-14.584 29.16,-18.965c9.857,-3.77 20.871,-5.918 33.043,-6.444Zm14.347,0.11c16.264,0.948 30.473,4.729 42.627,11.341c14.189,7.72 24.929,18.694 32.219,32.923c7.29,14.229 10.935,30.941 10.935,50.135c-0,14.188 -1.996,27.081 -5.988,38.682c-3.992,11.6 -9.981,21.656 -17.965,30.168c-7.984,8.513 -17.791,15.022 -29.42,19.529c-9.639,3.735 -20.441,5.922 -32.408,6.562l-0,-29.863c6.913,-0.935 13.399,-3.141 19.456,-6.618c8.288,-4.757 14.883,-12.101 19.787,-22.032c4.903,-9.931 7.355,-22.157 7.355,-36.678c-0,-13.436 -2.257,-25.078 -6.77,-34.926c-4.512,-9.847 -10.956,-17.296 -19.331,-22.345c-6.163,-3.715 -12.996,-6.064 -20.497,-7.045l-0,-29.833Z" style="fill:#fff;fill-rule:nonzero;"/></g></svg>